<svg xmlns="http://www.w3.org/2000/svg" xmlns:xlink="http://www.w3.org/1999/xlink" width="77" height="17" viewBox="0 0 77 17">
    <defs>
        <path id="a" d="M.037.075H14.17v16.884H.037z"/>
    </defs>
    <g fill="none" fill-rule="evenodd">
        <g>
            <mask id="b" fill="#fff">
                <use xlink:href="#a"/>
            </mask>
            <path fill="#006694" fill-rule="nonzero" d="M8.961 1.223c.88 0 1.39.611 1.39 1.545 0 3.904-4.093 5.624-7.206 5.841.543-2.368 3.214-7.386 5.816-7.386zm4.957 7.915s-4.976 5.92-8.44 5.92c-1.588 0-2.771-.964-2.771-2.757 0-.933.063-1.74.264-2.677 3.623-.356 10.084-2.127 10.084-7.001 0-1.972-1.79-2.548-3.313-2.548C4.84.075 0 6.419 0 12.157 0 14.561 1.05 17 4.162 17c4.334 0 8.182-4.342 10.007-6.8V8.833l-.25.306z" mask="url(#b)"/>
        </g>
        <path fill="#0A0B09" fill-rule="nonzero" d="M65.328 4.381c-1.483 0-2.1 1.048-2.418 1.627h-.035c0-.485-.053-.99-.07-1.476H60.76c.052.43.07.991.07 1.589v8.04h2.187V8.553c0-1.234.406-2.263 1.553-2.263.9 0 1.252.617 1.252 2.095v5.778h2.188V7.954c0-1.946-.618-3.573-2.68-3.573M56.807 14.162h2.186V4.53h-2.186zM23.414 4.381c-1.342 0-1.994.86-2.435 1.535-.265-.524-.759-1.535-2.294-1.535-1.252 0-1.957.918-2.293 1.665h-.036c0-.505-.052-1.01-.07-1.514h-2.188c.036.354.07.878.07 1.57v8.06h2.188V8.327c0-1.065.513-2.038 1.483-2.038.811 0 1.164.599 1.164 1.796v6.077h2.188V8.327c0-1.065.511-2.038 1.481-2.038.812 0 1.164.599 1.164 1.796v6.077h2.188V8.215c0-2.337-.635-3.834-2.61-3.834M53.931 12.554c-1.675 0-2.487-1.384-2.487-3.18 0-2.056.723-3.234 2.382-3.234.6 0 1.146.262 1.534.468l.125-1.834c-.407-.168-1.219-.393-1.905-.393-3.054 0-4.394 2.227-4.394 4.975 0 2.73 1.271 4.957 4.269 4.957.882 0 1.642-.188 2.153-.393l-.123-1.834c-.3.206-1.025.468-1.554.468M71.52 8.515c0-1.272.474-2.562 1.622-2.562.988 0 1.516.86 1.516 2.562H71.52zm5.256 1.01c0-3.928-1.676-5.144-3.634-5.144-2.311 0-3.739 2.227-3.739 5.106 0 2.6 1.27 4.826 4.198 4.826 1.306 0 2.257-.412 2.717-.618l-.107-1.834c-.406.32-1.04.75-2.381.75-1.694 0-2.31-.992-2.31-2.637h5.256v-.45zM56.773 2.717h2.257V.435h-2.257zM29.464 8.515c0-1.272.477-2.562 1.624-2.562.986 0 1.516.86 1.516 2.562h-3.14zm1.624-4.134c-2.312 0-3.74 2.227-3.74 5.106 0 2.6 1.269 4.826 4.198 4.826 1.305 0 2.258-.412 2.717-.618l-.107-1.834c-.405.32-1.04.75-2.382.75-1.693 0-2.31-.992-2.31-2.637h5.257v-.45c0-3.927-1.677-5.143-3.633-5.143zM39.608 12.61c-1.271 0-1.606-1.121-1.606-3.348 0-1.925.423-3.179 1.641-3.179 1.199 0 1.694 1.366 1.694 3.236 0 1.814-.442 3.292-1.73 3.292zM43.524.14l-2.187.71v5.066H41.3c-.317-.749-1.04-1.535-2.345-1.535-1.958 0-3.141 1.834-3.141 4.975 0 2.675.936 4.957 3.193 4.957 1.413 0 2.065-.824 2.417-1.647h.053c0 .655.037 1.216.071 1.496h2.046c-.052-.355-.07-.953-.07-1.645V.14zM45.376 2.717h2.258V.435h-2.258zM45.412 14.162h2.186V4.53h-2.186z"/>
    </g>
</svg>
